<?xml version="1.0" encoding="utf-8"?>
<svg xmlns="http://www.w3.org/2000/svg" height="256" width="256" viewBox="0 0 256 256">
  <g>
    <path id="path1" transform="rotate(0,128,128) translate(0,29.1359710693359) scale(8,8)  " fill="#4DCFA8" d="M31.575012,19.010061L31.219971,24.517019 6.3109741,24.716007 4.6300049,19.75505z M32,12.412107L31.651001,17.812072 4.2310181,18.56907 2.3359985,12.982109C12.327026,14.407101,26.648987,13.024117,32,12.412107z M13.682007,2.0002048L31.580017,11.192131C25.572021,11.823122,11.765015,13.053108,2.7249756,11.825121L5.9719849,8.9141495C6.6389771,9.4481423 7.4829712,9.7701304 8.4039917,9.7701304 10.549988,9.7701304 12.288025,8.0311463 12.288025,5.8851674 12.288025,5.1161764 12.062012,4.4021781 11.676025,3.799186z M1.7849731,0.00022094523C3.9299927,0.026221808,6.0369873,2.1772053,6.934021,3.2211878L7.0599976,3.1441925C8.5239868,2.3781924 10.330017,2.9431901 11.096008,4.4061759 11.862,5.8691614 11.296997,7.6731474 9.8339844,8.4401391 8.3709717,9.2061398 6.565979,8.6421492 5.8010254,7.1791632 5.2540283,6.1341584 5.3880005,4.9171732 6.039978,4.0261891 5.0789795,2.9181964 2.5009766,0.287206 0.67498779,1.536204L0,0.54921264C0.58099365,0.1522126,1.184021,-0.006782684,1.7849731,0.00022094523z" />
  </g>
</svg>

